<svg viewBox="0 0 726 496" fill="none" xmlns="http://www.w3.org/2000/svg">
    <style>
        .logo-fill {
            fill: #000;
        }

        @media (prefers-color-scheme: dark) {
            .logo-fill {
                fill: #fff;
            }
        }
    </style>
    <g>
        <path
            d="M356.853 0.415821C402.551 -0.968002 447.72 10.5387 487.186 33.6191C498.32 40.1427 507.674 47.1593 518.182 54.532C551.411 44.4339 588.172 35.4802 622.814 32.7125C651.022 30.4587 687.569 31.4155 709.725 50.971C718.572 58.7758 725.677 72.9662 725.829 84.8763C726.477 136.978 670.749 186.542 635.211 219.18C630.173 223.809 614.199 235.703 612.075 239.804C609.55 244.684 609.843 266.363 609.139 273.627C603.577 326.238 581.326 375.692 545.641 414.755C501.239 463.375 439.352 492.376 373.577 495.39C313.456 496.748 261.517 480.566 213.089 444.443C168.66 455.881 132.91 464.006 86.7549 464.643C8.62159 465.713 -25.9212 420.362 22.0425 352.433C39.6224 327.534 59.5126 307.607 82.5571 287.297C92.3627 278.656 106.457 269.137 115.546 260.275L115.97 259.854C115.915 246.869 115.909 235.426 117.238 222.471C122.646 168.251 146.026 117.395 183.663 77.9905C228.539 29.7933 291.012 1.81035 356.853 0.415821ZM121.236 299.164C95.135 318.911 39.4787 370.699 34.5331 404.258C33.836 408.991 34.6024 413.685 37.5494 417.567C44.2891 426.441 58.6589 428.898 68.9683 430.042C146.831 438.662 270.935 392.156 342.586 359.921C451.985 308.841 566.433 245.382 651.101 157.051C666.354 141.14 681.416 121.591 689.699 101.053C692.049 94.9924 693.395 87.3443 690.623 81.2511C688.071 75.6454 681.191 71.5232 675.252 69.8233C642.739 60.5135 602.495 68.7342 570.079 75.3575C564.224 76.5537 550.904 79.7749 545.928 81.8489C567.757 102.241 594.669 150.261 600.247 179.508C593.711 187.939 580.61 197.5 571.859 204.229C567.836 188.195 564.207 175.575 557.44 160.295C539.403 120.483 509.725 87.0687 472.315 64.4565C440.879 45.3996 404.958 35.0052 368.202 34.3285C364.534 34.2541 351.869 34.2085 348.501 34.7663C291.43 38.5994 238.356 65.4161 201.416 109.084C165.057 151.76 146.825 206.959 150.615 262.894C153.49 299.56 165.685 334.887 186.043 365.516C192.484 375.156 198.948 382.402 205.541 391.462C199.191 393.294 175.247 401.396 168.91 399.266C166.822 398.567 160.779 389.603 158.891 386.842C138.378 356.878 130.179 333.326 121.236 299.164ZM255.025 431.236C262.517 435.794 269.412 439.322 277.381 443.046C388.025 490.082 509.375 442.764 558.747 332.036C563.531 321.32 577.381 277.68 574.953 267.456L574.13 267.024C566.743 271.9 559.609 277.246 552.262 282.242C538.214 291.778 523.969 301.025 509.539 309.979C462.46 338.763 413.674 364.665 363.457 387.541C339.804 398.162 315.888 408.186 291.73 417.595C281.35 421.607 263.96 427.055 255.025 431.236Z"
            class="logo-fill" />
        <path
            d="M258.696 213.463C273.422 212.319 286.301 223.298 287.499 238.019C288.697 252.739 277.764 265.658 263.047 266.909C248.254 268.168 235.254 257.166 234.049 242.37C232.845 227.572 243.894 214.613 258.696 213.463Z"
            class="logo-fill" />
        <path
            d="M442.761 158.845C457.344 156.432 471.121 166.3 473.532 180.883C475.938 195.466 466.066 209.24 451.484 211.643C436.901 214.046 423.135 204.179 420.729 189.602C418.323 175.025 428.184 161.257 442.761 158.845Z"
            class="logo-fill" />
        <path
            d="M386.464 225.582C400.591 225.593 400.157 238.082 395.305 247.753C390.589 257.141 382.368 264.295 372.417 267.664C359.073 272.091 348.481 269.31 336.541 263.219C329.159 258.374 321.032 249.2 332.637 241.079C337.591 237.612 347.405 245.719 352.612 247.671C360.127 250.49 369.577 248.911 374.423 241.612C379.105 234.373 377.623 229.556 386.464 225.582Z"
            class="logo-fill" />
    </g>
</svg>